<svg id="svg" version="1.1" xmlns="http://www.w3.org/2000/svg" xmlns:xlink="http://www.w3.org/1999/xlink" width="400" height="403.5759897828864" viewBox="0, 0, 400,403.5759897828864"><g id="svgg"><path id="path0" d="M199.545 60.846 C 199.286 61.284,198.983 61.795,198.871 61.981 C 198.759 62.168,198.614 62.435,198.548 62.574 C 198.483 62.712,198.177 63.225,197.869 63.712 C 197.561 64.200,197.309 64.629,197.309 64.666 C 197.309 64.703,196.870 65.477,196.333 66.387 C 195.796 67.296,195.303 68.154,195.237 68.293 C 195.096 68.589,194.736 69.213,193.196 71.825 C 192.568 72.889,191.786 74.251,191.457 74.853 C 191.129 75.454,190.667 76.249,190.432 76.619 C 190.197 76.989,189.854 77.595,189.671 77.965 C 189.488 78.335,189.293 78.675,189.239 78.722 C 189.124 78.819,187.889 80.901,187.889 80.996 C 187.889 81.032,187.298 82.070,186.575 83.304 C 185.852 84.538,185.208 85.658,185.143 85.793 C 185.079 85.928,184.879 86.266,184.701 86.543 C 184.522 86.821,184.270 87.237,184.141 87.468 C 183.514 88.592,182.892 89.677,182.259 90.749 C 181.877 91.396,181.511 92.040,181.445 92.178 C 181.380 92.317,181.168 92.696,180.976 93.019 C 180.783 93.343,180.014 94.668,179.266 95.963 C 178.519 97.258,177.390 99.203,176.758 100.286 C 176.127 101.368,175.610 102.333,175.610 102.430 C 175.610 102.528,175.541 102.607,175.458 102.607 C 175.375 102.607,175.223 102.815,175.121 103.070 C 175.019 103.324,174.786 103.759,174.602 104.037 C 174.418 104.315,174.215 104.655,174.149 104.794 C 174.008 105.096,171.976 108.638,171.737 108.999 C 171.646 109.138,171.519 109.365,171.457 109.504 C 171.394 109.643,170.637 110.950,169.776 112.410 C 168.914 113.869,168.209 115.093,168.209 115.130 C 168.209 115.167,167.376 116.606,166.358 118.327 C 165.341 120.048,164.508 121.484,164.508 121.517 C 164.508 121.551,163.917 122.589,163.194 123.825 C 162.472 125.061,161.827 126.186,161.763 126.325 C 161.698 126.463,161.495 126.804,161.312 127.082 C 161.129 127.359,160.926 127.697,160.862 127.832 C 160.797 127.967,160.153 129.087,159.430 130.321 C 158.707 131.555,158.116 132.594,158.116 132.629 C 158.116 132.664,157.449 133.815,156.634 135.186 C 155.819 136.557,154.878 138.178,154.543 138.789 C 153.905 139.949,151.334 144.391,151.047 144.828 C 150.956 144.966,150.828 145.193,150.764 145.332 C 150.700 145.471,150.198 146.341,149.649 147.267 C 149.099 148.192,148.648 149.043,148.645 149.159 C 148.642 149.275,148.573 149.369,148.492 149.369 C 148.410 149.369,148.231 149.615,148.094 149.916 C 147.957 150.217,147.700 150.690,147.523 150.967 C 147.346 151.245,147.026 151.812,146.813 152.229 C 146.600 152.645,146.384 153.024,146.334 153.070 C 146.210 153.182,144.323 156.431,144.323 156.531 C 144.323 156.574,144.118 156.929,143.868 157.320 C 143.618 157.712,143.221 158.388,142.985 158.824 C 142.750 159.259,142.122 160.342,141.590 161.230 C 141.058 162.118,140.622 162.869,140.622 162.900 C 140.622 162.930,140.030 163.971,139.307 165.213 C 138.584 166.455,137.939 167.581,137.875 167.714 C 137.811 167.847,137.609 168.183,137.426 168.461 C 137.243 168.738,137.042 169.072,136.979 169.203 C 136.917 169.333,136.392 170.254,135.814 171.249 C 135.235 172.244,134.807 173.102,134.861 173.156 C 134.915 173.211,134.880 173.255,134.782 173.255 C 134.685 173.255,134.480 173.501,134.326 173.802 C 134.173 174.102,133.902 174.575,133.724 174.853 C 133.547 175.130,133.205 175.736,132.965 176.198 C 132.725 176.661,132.401 177.241,132.244 177.487 C 131.907 178.018,130.983 179.597,130.396 180.647 C 130.166 181.059,129.761 181.762,129.497 182.211 C 129.232 182.659,129.016 183.054,129.016 183.088 C 129.016 183.122,128.751 183.552,128.427 184.044 C 128.103 184.535,127.839 185.034,127.839 185.152 C 127.839 185.270,127.782 185.366,127.712 185.366 C 127.643 185.366,127.398 185.725,127.168 186.165 C 126.938 186.604,126.427 187.515,126.033 188.188 C 125.638 188.862,125.315 189.461,125.315 189.521 C 125.315 189.580,125.210 189.748,125.082 189.894 C 124.953 190.040,124.645 190.538,124.397 191.001 C 124.149 191.463,123.801 192.069,123.623 192.347 C 123.446 192.624,123.248 192.960,123.184 193.094 C 123.032 193.411,120.488 197.823,120.269 198.150 C 120.176 198.288,120.021 198.553,119.925 198.738 C 119.647 199.272,118.739 200.862,117.892 202.297 C 117.464 203.023,116.904 203.991,116.649 204.449 C 116.393 204.906,115.968 205.648,115.704 206.096 C 115.439 206.545,115.223 206.939,115.223 206.973 C 115.223 207.007,114.958 207.438,114.634 207.929 C 114.310 208.421,114.045 208.878,114.045 208.945 C 114.045 209.012,113.818 209.403,113.541 209.814 C 113.263 210.225,113.036 210.601,113.036 210.650 C 113.036 210.698,112.696 211.314,112.279 212.018 C 111.863 212.722,111.522 213.332,111.522 213.374 C 111.522 213.416,111.257 213.864,110.934 214.370 C 110.610 214.877,110.345 215.345,110.345 215.412 C 110.345 215.478,110.227 215.663,110.083 215.822 C 109.940 215.980,109.810 216.265,109.796 216.454 C 109.782 216.643,109.716 216.764,109.650 216.723 C 109.584 216.682,109.353 217.009,109.138 217.450 C 108.923 217.890,108.695 218.290,108.631 218.338 C 108.568 218.386,108.434 218.613,108.334 218.843 C 108.234 219.072,107.917 219.638,107.630 220.101 C 107.344 220.563,106.840 221.434,106.512 222.035 C 106.183 222.637,105.751 223.394,105.552 223.717 C 105.353 224.041,105.138 224.420,105.074 224.558 C 105.011 224.697,104.827 225.012,104.666 225.259 C 104.343 225.753,103.457 227.260,102.810 228.418 C 102.579 228.830,102.175 229.533,101.910 229.982 C 101.646 230.430,101.430 230.828,101.430 230.865 C 101.430 230.903,101.205 231.266,100.931 231.673 C 100.657 232.079,100.353 232.594,100.256 232.816 C 100.159 233.039,99.930 233.448,99.747 233.726 C 99.564 234.003,99.361 234.344,99.295 234.483 C 99.230 234.622,98.850 235.286,98.452 235.959 C 98.055 236.633,97.729 237.218,97.729 237.260 C 97.729 237.302,97.464 237.750,97.140 238.256 C 96.817 238.762,96.552 239.226,96.552 239.286 C 96.552 239.347,96.344 239.710,96.089 240.093 C 95.835 240.477,95.475 241.093,95.290 241.463 C 95.105 241.833,94.902 242.176,94.838 242.224 C 94.775 242.272,94.641 242.499,94.541 242.728 C 94.441 242.958,94.137 243.503,93.865 243.940 C 93.593 244.377,93.133 245.162,92.842 245.685 C 92.551 246.208,92.108 246.986,91.857 247.414 C 91.606 247.842,91.348 248.305,91.283 248.444 C 91.218 248.583,91.034 248.898,90.873 249.144 C 90.485 249.738,89.555 251.332,88.927 252.481 C 88.649 252.990,88.245 253.689,88.029 254.034 C 87.813 254.379,87.637 254.697,87.637 254.740 C 87.637 254.784,87.421 255.145,87.157 255.542 C 86.893 255.940,86.399 256.777,86.060 257.403 C 85.720 258.028,85.103 259.113,84.689 259.814 C 84.275 260.514,83.936 261.118,83.936 261.154 C 83.936 261.212,83.389 262.129,82.635 263.335 C 82.521 263.517,82.313 263.894,82.174 264.172 C 82.035 264.449,81.712 265.027,81.456 265.456 C 80.239 267.501,79.292 269.131,78.833 269.974 C 78.556 270.483,78.166 271.165,77.966 271.489 C 77.767 271.812,77.552 272.191,77.488 272.330 C 77.424 272.468,77.222 272.809,77.037 273.087 C 76.853 273.364,76.588 273.818,76.448 274.096 C 76.308 274.373,76.119 274.714,76.029 274.853 C 75.704 275.352,73.844 278.582,73.844 278.648 C 73.844 278.685,73.591 279.114,73.283 279.601 C 72.975 280.089,72.670 280.601,72.604 280.740 C 72.538 280.879,72.393 281.144,72.281 281.329 C 72.169 281.514,71.662 282.384,71.154 283.263 C 70.646 284.142,70.098 285.088,69.936 285.366 C 69.774 285.643,69.450 286.211,69.216 286.627 C 68.982 287.044,68.564 287.763,68.288 288.225 C 68.011 288.688,67.670 289.294,67.529 289.571 C 67.388 289.849,67.143 290.278,66.984 290.525 C 66.642 291.057,64.023 295.632,63.438 296.720 C 63.214 297.136,62.970 297.516,62.897 297.564 C 62.823 297.613,62.683 297.840,62.585 298.069 C 62.486 298.298,62.331 298.600,62.239 298.738 C 61.984 299.123,60.177 302.272,59.802 302.985 L 59.470 303.614 60.993 305.087 C 62.622 306.662,66.619 310.439,68.532 312.210 C 69.172 312.803,70.090 313.667,70.572 314.130 C 72.195 315.687,74.261 317.649,76.709 319.955 C 79.761 322.831,80.836 323.850,82.422 325.374 C 83.116 326.040,84.733 327.567,86.016 328.768 C 87.298 329.968,88.863 331.442,89.493 332.044 C 90.124 332.645,91.044 333.516,91.538 333.978 C 95.281 337.482,101.117 343.024,101.411 343.356 C 101.809 343.803,102.000 343.735,103.532 342.599 C 104.312 342.021,105.487 341.169,106.143 340.706 C 106.800 340.244,107.440 339.771,107.567 339.655 C 107.694 339.540,107.846 339.445,107.906 339.445 C 107.965 339.445,108.119 339.350,108.248 339.235 C 108.485 339.022,109.095 338.580,111.690 336.739 C 112.477 336.181,113.272 335.614,113.457 335.479 C 113.642 335.343,114.399 334.803,115.139 334.279 C 115.879 333.754,116.912 333.018,117.436 332.642 C 117.959 332.267,118.551 331.846,118.753 331.707 C 118.954 331.569,119.750 331.001,120.520 330.446 C 121.290 329.891,122.416 329.096,123.022 328.680 C 123.628 328.263,124.127 327.866,124.131 327.796 C 124.135 327.727,124.219 327.670,124.318 327.670 C 124.417 327.670,124.600 327.576,124.724 327.460 C 124.848 327.344,125.496 326.871,126.163 326.409 C 128.193 325.003,129.591 324.003,129.870 323.757 C 130.016 323.629,130.243 323.474,130.374 323.413 C 130.610 323.304,134.793 320.290,135.191 319.942 C 135.302 319.844,135.438 319.765,135.492 319.765 C 135.546 319.765,135.682 319.684,135.793 319.586 C 135.905 319.487,137.056 318.653,138.352 317.731 C 139.647 316.809,140.840 315.943,141.003 315.807 C 141.166 315.671,141.342 315.559,141.395 315.559 C 141.448 315.559,141.921 315.232,142.445 314.832 C 143.248 314.218,144.804 313.099,146.343 312.027 C 146.542 311.888,147.336 311.320,148.107 310.765 C 148.877 310.210,150.101 309.341,150.826 308.833 C 151.551 308.325,152.220 307.848,152.313 307.773 C 152.573 307.563,154.572 306.148,155.929 305.214 C 156.601 304.752,157.292 304.241,157.465 304.079 C 157.638 303.917,157.821 303.785,157.871 303.785 C 157.922 303.785,158.449 303.425,159.044 302.986 C 159.639 302.546,160.664 301.808,161.323 301.346 C 161.981 300.883,162.621 300.410,162.745 300.294 C 162.869 300.179,163.017 300.084,163.073 300.084 C 163.130 300.084,163.268 300.004,163.380 299.905 C 163.491 299.807,164.643 298.980,165.938 298.067 C 167.233 297.155,168.412 296.302,168.558 296.173 C 168.704 296.043,168.931 295.888,169.062 295.827 C 169.298 295.718,173.481 292.703,173.879 292.356 C 173.990 292.258,174.120 292.178,174.166 292.178 C 174.213 292.178,174.889 291.705,175.670 291.127 C 176.451 290.549,177.684 289.660,178.411 289.152 C 179.137 288.644,179.756 288.171,179.787 288.101 C 179.818 288.031,179.950 287.973,180.081 287.973 C 180.212 287.973,180.321 287.916,180.323 287.847 C 180.325 287.778,180.890 287.342,181.579 286.880 C 182.268 286.417,182.834 285.982,182.837 285.913 C 182.840 285.843,171.636 285.786,157.939 285.786 L 133.035 285.786 133.616 284.729 C 133.936 284.147,134.417 283.295,134.687 282.836 C 134.956 282.377,135.229 281.888,135.294 281.749 C 135.359 281.611,135.543 281.295,135.704 281.048 C 135.865 280.800,136.639 279.476,137.423 278.104 C 138.208 276.732,138.943 275.458,139.056 275.273 C 139.170 275.088,139.340 274.766,139.434 274.556 C 139.529 274.347,139.768 273.956,139.966 273.689 C 140.176 273.405,140.272 273.115,140.196 272.993 C 140.111 272.856,140.134 272.825,140.261 272.903 C 140.374 272.973,140.506 272.895,140.573 272.719 C 140.637 272.551,141.002 271.884,141.385 271.236 C 141.767 270.589,142.272 269.718,142.507 269.302 C 142.742 268.886,143.411 267.712,143.994 266.695 C 144.577 265.677,145.159 264.655,145.287 264.424 C 145.415 264.193,145.662 263.776,145.837 263.499 C 146.011 263.221,146.260 262.805,146.389 262.574 C 146.897 261.662,148.699 258.536,149.152 257.782 C 149.263 257.595,149.426 257.288,149.513 257.098 C 149.601 256.908,149.907 256.405,150.193 255.980 C 150.480 255.555,150.715 255.168,150.715 255.120 C 150.715 255.072,151.054 254.459,151.468 253.758 C 151.882 253.058,152.500 251.973,152.841 251.347 C 153.181 250.722,153.675 249.894,153.938 249.507 C 154.200 249.120,154.415 248.767,154.415 248.722 C 154.415 248.677,154.743 248.085,155.144 247.407 C 155.545 246.728,156.075 245.814,156.322 245.374 C 156.568 244.935,156.972 244.216,157.219 243.776 C 157.466 243.337,157.981 242.447,158.363 241.800 C 158.745 241.152,159.112 240.509,159.178 240.370 C 159.243 240.231,159.444 239.891,159.622 239.613 C 159.801 239.336,160.053 238.919,160.182 238.688 C 160.809 237.565,161.431 236.479,162.064 235.408 C 162.446 234.760,162.812 234.117,162.878 233.978 C 162.943 233.839,163.137 233.499,163.308 233.221 C 163.479 232.944,163.790 232.414,163.999 232.044 C 164.208 231.674,164.747 230.746,165.197 229.983 C 165.647 229.220,165.960 228.594,165.893 228.593 C 165.825 228.591,165.857 228.535,165.963 228.467 C 166.069 228.399,166.402 227.889,166.702 227.334 C 167.003 226.779,167.446 226.022,167.686 225.652 C 167.927 225.282,168.276 224.676,168.461 224.306 C 168.646 223.936,168.844 223.595,168.902 223.549 C 168.959 223.503,169.210 223.087,169.460 222.624 C 169.709 222.161,170.099 221.480,170.326 221.110 C 170.553 220.740,170.790 220.324,170.853 220.185 C 170.916 220.046,171.391 219.214,171.909 218.335 C 172.427 217.456,172.905 216.623,172.971 216.484 C 173.037 216.346,173.237 216.005,173.415 215.728 C 173.594 215.450,173.846 215.034,173.975 214.802 C 174.518 213.829,175.185 212.663,175.650 211.874 C 175.924 211.410,176.416 210.536,176.744 209.931 C 177.071 209.326,177.442 208.711,177.568 208.565 C 177.694 208.419,177.796 208.257,177.796 208.204 C 177.796 208.151,178.364 207.149,179.058 205.977 C 179.752 204.805,180.320 203.814,180.320 203.775 C 180.320 203.736,180.799 202.890,181.386 201.894 C 181.972 200.899,182.503 199.971,182.565 199.832 C 182.627 199.693,182.828 199.352,183.010 199.075 C 183.193 198.797,183.420 198.419,183.515 198.234 C 183.610 198.049,183.877 197.595,184.110 197.225 C 184.342 196.854,184.583 196.438,184.646 196.299 C 184.709 196.161,185.072 195.517,185.452 194.870 C 185.833 194.222,186.197 193.579,186.262 193.440 C 186.326 193.301,186.528 192.960,186.711 192.683 C 186.894 192.405,187.122 191.998,187.218 191.778 C 187.314 191.558,187.533 191.179,187.705 190.937 C 187.877 190.694,188.167 190.231,188.348 189.907 C 189.976 187.008,191.123 185.008,192.011 183.516 C 193.265 181.407,194.187 179.779,194.581 178.974 C 194.740 178.650,194.914 178.347,194.969 178.301 C 195.023 178.255,195.460 177.536,195.940 176.703 C 196.419 175.870,196.886 175.076,196.977 174.937 C 197.068 174.798,197.193 174.571,197.255 174.432 C 197.317 174.294,197.548 173.891,197.768 173.538 C 197.988 173.185,198.303 172.655,198.469 172.361 C 199.662 170.242,199.877 169.891,199.981 169.891 C 200.111 169.891,201.524 172.216,202.128 173.423 C 202.197 173.562,202.693 174.420,203.230 175.329 C 203.766 176.239,204.205 177.013,204.205 177.050 C 204.205 177.109,204.910 178.287,205.510 179.230 C 205.626 179.413,205.773 179.673,205.836 179.808 C 205.899 179.944,206.527 181.041,207.233 182.247 C 207.938 183.454,208.568 184.554,208.633 184.693 C 208.697 184.832,208.900 185.172,209.083 185.450 C 209.266 185.728,209.467 186.068,209.529 186.207 C 209.591 186.346,210.235 187.462,210.961 188.688 C 211.686 189.913,212.279 190.946,212.279 190.982 C 212.279 191.040,213.900 193.827,215.450 196.433 C 215.742 196.923,215.980 197.352,215.980 197.386 C 215.980 197.421,216.419 198.194,216.955 199.103 C 217.492 200.013,217.983 200.870,218.045 201.009 C 218.108 201.148,218.350 201.564,218.582 201.934 C 218.815 202.304,219.058 202.718,219.122 202.853 C 219.186 202.988,219.822 204.094,220.535 205.311 C 221.247 206.527,222.017 207.858,222.246 208.268 C 222.475 208.678,223.430 210.318,224.367 211.912 C 225.305 213.507,226.072 214.841,226.072 214.877 C 226.072 214.913,226.400 215.498,226.801 216.176 C 227.202 216.855,227.723 217.756,227.959 218.180 C 228.773 219.639,228.848 219.765,228.963 219.852 C 229.027 219.900,229.160 220.127,229.260 220.357 C 229.359 220.586,229.580 221.001,229.749 221.278 C 230.025 221.729,231.804 224.816,232.415 225.904 C 232.545 226.135,232.796 226.552,232.973 226.829 C 233.150 227.107,233.407 227.561,233.545 227.839 C 233.682 228.116,234.006 228.696,234.265 229.128 C 234.865 230.129,235.785 231.707,236.211 232.464 C 236.595 233.148,238.005 235.584,238.303 236.079 C 238.415 236.265,238.560 236.531,238.625 236.669 C 238.690 236.808,238.871 237.111,239.028 237.342 C 239.184 237.574,239.501 238.103,239.732 238.520 C 239.962 238.936,240.628 240.109,241.211 241.127 C 241.794 242.145,242.378 243.167,242.508 243.398 C 242.638 243.629,242.890 244.045,243.069 244.323 C 243.248 244.601,243.448 244.941,243.514 245.080 C 243.579 245.219,243.959 245.883,244.357 246.557 C 244.754 247.230,245.080 247.820,245.080 247.868 C 245.080 247.916,245.345 248.370,245.669 248.876 C 245.992 249.382,246.257 249.826,246.257 249.862 C 246.257 249.898,247.090 251.341,248.108 253.070 C 249.125 254.798,249.958 256.231,249.958 256.253 C 249.958 256.307,252.770 261.176,253.171 261.817 C 253.345 262.094,253.541 262.435,253.607 262.574 C 253.672 262.712,254.051 263.377,254.449 264.050 C 254.847 264.724,255.172 265.314,255.172 265.362 C 255.172 265.410,255.423 265.843,255.729 266.324 C 256.036 266.806,256.339 267.313,256.404 267.452 C 256.469 267.590,256.672 267.931,256.854 268.209 C 257.037 268.486,257.240 268.827,257.304 268.966 C 257.369 269.104,257.748 269.773,258.147 270.451 C 258.546 271.130,258.873 271.720,258.873 271.763 C 258.873 271.806,259.138 272.255,259.462 272.762 C 259.786 273.268,260.050 273.716,260.050 273.758 C 260.050 273.800,260.376 274.385,260.774 275.058 C 261.172 275.732,261.551 276.396,261.617 276.535 C 261.682 276.674,261.886 277.014,262.069 277.292 C 262.252 277.569,262.455 277.910,262.519 278.049 C 262.584 278.188,262.888 278.695,263.194 279.176 C 263.500 279.657,263.751 280.094,263.751 280.147 C 263.751 280.199,263.927 280.525,264.143 280.870 C 264.359 281.215,264.821 282.027,265.169 282.675 C 265.518 283.322,265.924 283.947,266.071 284.062 C 266.218 284.178,266.284 284.272,266.218 284.272 C 266.152 284.272,266.215 284.500,266.358 284.777 C 266.502 285.055,266.693 285.282,266.783 285.282 C 266.873 285.282,266.947 285.395,266.947 285.534 C 266.947 285.757,264.041 285.786,241.800 285.786 C 216.850 285.786,215.942 285.806,217.073 286.322 C 217.304 286.427,217.494 286.577,217.494 286.654 C 217.494 286.732,217.567 286.796,217.656 286.796 C 217.746 286.796,218.497 287.269,219.325 287.847 C 220.154 288.425,221.565 289.390,222.460 289.992 C 223.355 290.593,224.175 291.161,224.281 291.253 C 224.387 291.346,224.815 291.648,225.231 291.926 C 225.648 292.204,226.013 292.487,226.044 292.557 C 226.075 292.626,226.178 292.683,226.272 292.683 C 226.367 292.683,226.731 292.910,227.082 293.188 C 227.432 293.465,227.770 293.692,227.832 293.692 C 227.979 293.692,229.167 294.579,229.240 294.743 C 229.271 294.813,229.397 294.870,229.521 294.870 C 229.644 294.870,229.770 294.928,229.801 295.000 C 229.832 295.071,230.538 295.582,231.371 296.135 C 232.204 296.688,232.910 297.197,232.941 297.267 C 232.972 297.336,233.080 297.393,233.182 297.393 C 233.284 297.393,233.524 297.535,233.715 297.709 C 234.202 298.153,236.324 299.579,236.498 299.579 C 236.577 299.579,236.667 299.636,236.698 299.706 C 236.728 299.775,236.981 299.989,237.258 300.182 C 237.536 300.374,238.159 300.810,238.644 301.149 C 239.129 301.488,239.596 301.766,239.681 301.766 C 239.767 301.766,239.863 301.829,239.893 301.905 C 239.966 302.083,243.205 304.289,243.395 304.289 C 243.474 304.289,243.563 304.353,243.594 304.432 C 243.668 304.619,246.378 306.476,246.579 306.476 C 246.664 306.476,246.759 306.537,246.790 306.611 C 246.854 306.766,249.477 308.597,254.752 312.167 C 255.677 312.794,257.153 313.802,258.032 314.408 C 258.911 315.014,260.446 316.070,261.442 316.754 C 262.439 317.438,264.180 318.634,265.311 319.410 C 266.442 320.187,268.407 321.529,269.678 322.393 C 270.949 323.257,272.349 324.216,272.790 324.524 C 273.231 324.832,274.689 325.830,276.030 326.741 C 277.372 327.652,278.745 328.613,279.082 328.875 C 279.419 329.138,279.779 329.352,279.881 329.352 C 279.984 329.352,280.069 329.409,280.070 329.479 C 280.072 329.548,280.449 329.832,280.908 330.109 C 281.367 330.387,281.744 330.671,281.746 330.740 C 281.748 330.810,281.828 330.866,281.924 330.866 C 282.075 330.866,283.013 331.456,283.263 331.708 C 283.310 331.754,283.688 332.019,284.104 332.297 C 284.521 332.574,284.886 332.857,284.917 332.927 C 284.948 332.996,285.074 333.053,285.198 333.053 C 285.321 333.053,285.447 333.110,285.478 333.179 C 285.550 333.341,287.347 334.567,287.512 334.567 C 287.581 334.567,287.776 334.699,287.945 334.861 C 288.115 335.023,288.427 335.269,288.637 335.408 C 288.848 335.547,289.348 335.906,289.748 336.207 C 290.149 336.508,290.526 336.754,290.588 336.754 C 290.650 336.754,290.987 336.981,291.337 337.258 C 291.688 337.536,292.052 337.763,292.146 337.763 C 292.241 337.763,292.344 337.826,292.375 337.903 C 292.433 338.049,295.161 339.950,295.312 339.950 C 295.360 339.950,295.501 340.044,295.627 340.160 C 295.753 340.275,296.220 340.622,296.666 340.929 C 297.112 341.237,298.181 341.975,299.041 342.569 C 299.901 343.164,300.662 343.650,300.732 343.650 C 300.854 343.650,303.209 341.285,310.429 333.911 C 312.279 332.021,314.815 329.436,316.064 328.165 C 322.832 321.282,331.084 312.867,331.642 312.279 C 331.993 311.909,334.124 309.725,336.376 307.426 C 338.629 305.126,340.449 303.158,340.421 303.052 C 340.330 302.707,337.704 298.151,337.563 298.094 C 337.488 298.063,337.426 297.964,337.426 297.874 C 337.426 297.784,336.821 296.688,336.081 295.438 C 335.341 294.188,334.735 293.135,334.735 293.099 C 334.735 293.062,334.144 292.027,333.421 290.797 C 332.698 289.568,332.052 288.448,331.985 288.310 C 331.917 288.171,331.771 287.905,331.659 287.719 C 331.373 287.244,329.973 284.827,329.517 284.020 C 329.308 283.650,328.997 283.120,328.826 282.843 C 328.655 282.565,328.438 282.187,328.343 282.002 C 328.248 281.817,328.021 281.438,327.838 281.161 C 327.655 280.883,327.455 280.542,327.393 280.404 C 327.331 280.265,326.800 279.337,326.213 278.341 C 325.627 277.345,325.147 276.502,325.147 276.467 C 325.147 276.411,323.505 273.589,321.976 271.019 C 321.685 270.529,321.447 270.100,321.447 270.065 C 321.447 270.031,320.992 269.233,320.437 268.293 C 319.882 267.352,319.428 266.553,319.428 266.516 C 319.428 266.479,319.176 266.050,318.868 265.563 C 318.560 265.075,318.254 264.563,318.188 264.424 C 318.123 264.285,317.978 264.019,317.866 263.833 C 317.580 263.358,316.180 260.942,315.724 260.135 C 315.515 259.765,315.203 259.235,315.032 258.957 C 314.861 258.680,314.668 258.341,314.603 258.204 C 314.538 258.068,313.946 257.046,313.288 255.933 C 312.629 254.821,311.842 253.459,311.539 252.906 C 310.727 251.426,310.121 250.390,310.013 250.294 C 309.960 250.248,309.826 250.021,309.714 249.790 C 309.420 249.181,308.734 247.978,308.541 247.731 C 308.450 247.614,308.107 247.024,307.779 246.419 C 307.451 245.814,306.958 244.940,306.685 244.476 C 306.220 243.687,305.553 242.521,305.010 241.548 C 304.881 241.316,304.632 240.900,304.458 240.622 C 304.283 240.345,304.035 239.929,303.908 239.697 C 303.780 239.466,303.196 238.444,302.611 237.426 C 302.026 236.409,301.441 235.387,301.311 235.156 C 301.181 234.924,300.930 234.508,300.753 234.230 C 300.576 233.953,300.318 233.499,300.179 233.221 C 299.860 232.582,299.271 231.564,298.719 230.698 C 298.484 230.328,298.002 229.496,297.649 228.850 C 297.296 228.203,296.582 226.954,296.063 226.074 C 295.544 225.194,295.024 224.285,294.908 224.054 C 294.793 223.823,294.552 223.406,294.373 223.129 C 294.194 222.851,293.943 222.435,293.815 222.204 C 293.687 221.972,293.105 220.950,292.522 219.933 C 291.939 218.915,291.272 217.742,291.041 217.325 C 290.809 216.909,290.547 216.477,290.459 216.366 C 290.372 216.255,290.166 215.914,290.003 215.609 C 289.840 215.304,289.269 214.298,288.735 213.373 C 288.200 212.447,287.570 211.350,287.335 210.934 C 287.100 210.517,286.594 209.647,286.212 208.999 C 285.830 208.352,285.464 207.708,285.398 207.569 C 285.333 207.431,285.089 207.014,284.857 206.644 C 284.625 206.274,284.357 205.820,284.262 205.635 C 284.167 205.450,283.998 205.147,283.887 204.962 C 283.775 204.777,283.267 203.907,282.759 203.028 C 282.250 202.149,281.742 201.278,281.630 201.093 C 281.519 200.908,281.344 200.569,281.241 200.340 C 281.139 200.110,280.997 199.883,280.926 199.835 C 280.854 199.787,280.526 199.253,280.196 198.648 C 279.866 198.043,279.361 197.150,279.075 196.664 C 278.788 196.178,278.553 195.742,278.553 195.695 C 278.553 195.649,278.303 195.217,277.997 194.735 C 277.690 194.254,277.387 193.747,277.322 193.608 C 277.257 193.469,277.059 193.129,276.882 192.851 C 276.704 192.574,276.415 192.082,276.238 191.758 C 276.061 191.434,275.478 190.412,274.943 189.487 C 274.407 188.562,273.779 187.468,273.546 187.057 C 273.313 186.645,272.921 185.964,272.674 185.543 C 272.427 185.122,272.172 184.664,272.107 184.525 C 272.043 184.386,271.840 184.045,271.657 183.768 C 271.475 183.490,271.250 183.112,271.158 182.927 C 271.065 182.742,270.800 182.288,270.568 181.918 C 270.335 181.548,270.092 181.131,270.026 180.992 C 269.961 180.854,269.596 180.210,269.215 179.563 C 268.835 178.915,268.468 178.272,268.401 178.133 C 268.334 177.994,268.185 177.729,268.070 177.544 C 267.955 177.359,267.691 176.905,267.483 176.535 C 267.276 176.165,266.957 175.635,266.776 175.357 C 266.595 175.080,266.392 174.739,266.326 174.601 C 266.261 174.462,265.881 173.797,265.484 173.124 C 265.086 172.450,264.760 171.860,264.760 171.812 C 264.760 171.734,264.025 170.505,263.454 169.629 C 263.337 169.449,263.160 169.094,263.059 168.839 C 262.959 168.585,262.809 168.377,262.725 168.377 C 262.642 168.377,262.574 168.292,262.574 168.188 C 262.574 168.084,262.233 167.438,261.817 166.752 C 261.400 166.066,261.060 165.467,261.060 165.419 C 261.060 165.372,260.795 164.919,260.471 164.413 C 260.147 163.906,259.882 163.454,259.882 163.408 C 259.882 163.362,259.706 163.041,259.490 162.696 C 259.274 162.351,258.870 161.653,258.592 161.144 C 257.964 159.995,257.034 158.400,256.646 157.807 C 256.485 157.561,256.301 157.246,256.236 157.107 C 256.171 156.968,255.916 156.510,255.669 156.089 C 255.422 155.668,255.032 154.986,254.802 154.575 C 254.352 153.771,253.406 152.136,253.151 151.724 C 252.636 150.889,250.967 147.980,250.967 147.916 C 250.967 147.874,250.702 147.425,250.378 146.919 C 250.055 146.413,249.790 145.964,249.790 145.923 C 249.790 145.881,249.464 145.296,249.066 144.622 C 248.669 143.949,248.289 143.284,248.224 143.146 C 248.158 143.007,247.954 142.666,247.771 142.389 C 247.588 142.111,247.387 141.770,247.324 141.632 C 247.261 141.493,246.957 140.980,246.649 140.493 C 246.341 140.005,246.089 139.574,246.089 139.533 C 246.089 139.493,245.873 139.093,245.608 138.644 C 245.344 138.196,244.939 137.493,244.709 137.081 C 244.061 135.923,243.176 134.416,242.853 133.921 C 242.692 133.675,242.507 133.360,242.443 133.221 C 242.378 133.082,242.123 132.624,241.876 132.203 C 241.629 131.782,241.239 131.101,241.009 130.689 C 240.387 129.577,239.484 128.037,239.156 127.529 C 238.997 127.283,238.754 126.854,238.617 126.577 C 238.479 126.299,238.137 125.694,237.857 125.231 C 237.576 124.769,237.295 124.277,237.232 124.138 C 237.169 123.999,236.879 123.507,236.589 123.045 C 236.298 122.582,236.008 122.090,235.944 121.951 C 235.880 121.812,235.562 121.245,235.237 120.690 C 234.912 120.135,234.571 119.529,234.478 119.344 C 234.385 119.159,234.160 118.780,233.977 118.503 C 233.795 118.225,233.594 117.885,233.531 117.746 C 233.468 117.607,233.164 117.095,232.856 116.607 C 232.548 116.120,232.296 115.688,232.296 115.648 C 232.296 115.607,232.080 115.207,231.815 114.759 C 231.551 114.310,231.146 113.607,230.916 113.196 C 230.324 112.137,229.403 110.563,229.067 110.036 C 228.910 109.789,228.611 109.247,228.401 108.831 C 228.192 108.415,227.933 107.960,227.825 107.822 C 227.718 107.683,227.422 107.191,227.169 106.728 C 226.751 105.967,224.262 101.661,223.766 100.841 C 223.654 100.656,223.509 100.391,223.443 100.252 C 223.378 100.114,223.072 99.601,222.764 99.114 C 222.456 98.626,222.204 98.193,222.204 98.151 C 222.204 98.109,221.878 97.524,221.480 96.851 C 221.082 96.178,220.701 95.513,220.633 95.374 C 220.564 95.235,220.416 94.971,220.302 94.786 C 220.189 94.601,219.811 93.957,219.461 93.356 C 219.112 92.754,218.755 92.149,218.668 92.010 C 218.412 91.603,217.507 90.007,216.860 88.821 C 216.530 88.216,216.065 87.418,215.829 87.048 C 215.200 86.066,214.998 85.733,214.862 85.450 C 214.795 85.311,214.413 84.643,214.014 83.964 C 213.615 83.286,213.288 82.703,213.288 82.670 C 213.288 82.582,211.388 79.326,211.278 79.226 C 211.227 79.180,211.011 78.802,210.798 78.385 C 210.585 77.969,210.264 77.401,210.085 77.124 C 209.906 76.846,209.707 76.505,209.642 76.367 C 209.500 76.062,206.967 71.678,206.727 71.320 C 206.634 71.182,206.506 70.955,206.443 70.816 C 206.380 70.677,205.732 69.549,205.003 68.309 C 204.275 67.069,203.407 65.555,203.076 64.945 C 202.745 64.335,202.258 63.510,201.994 63.112 C 201.730 62.714,201.514 62.322,201.514 62.241 C 201.514 62.159,201.418 61.993,201.301 61.871 C 201.184 61.748,200.900 61.289,200.671 60.849 C 200.155 59.864,200.124 59.864,199.545 60.846 " stroke="none" fill="#141414" fill-rule="evenodd"></path><path id="path1" d="" stroke="none" fill="#181414" fill-rule="evenodd"></path><path id="path2" d="" stroke="none" fill="#181414" fill-rule="evenodd"></path><path id="path3" d="" stroke="none" fill="#181414" fill-rule="evenodd"></path><path id="path4" d="" stroke="none" fill="#181414" fill-rule="evenodd"></path></g></svg>